PathFileType	4	(X/Y/Z)	/Users/niels/Desktop/University/Third Semester/Perception and Action/Exam/Gymnastics Motion Tracking/Code for Gym Tracking/Analyzed Data/Webcam_Backflip/id2001_2_baseline_Sports2D/id2001_2_baseline_Sports2D_px_person00.trc
DataRate	CameraRate	NumFrames	NumMarkers	Units	OrigDataRate	OrigDataStartFrame	OrigNumFrames
29.888475836431226	29.888475836431226	11	22	m	29.888475836431226	67	269
Frame#	Time	Hip			RHip			RKnee			RAnkle			RBigToe			RSmallToe			RHeel			LHip			LKnee			LAnkle			LBigToe			LSmallToe			LHeel			Neck			Head			Nose			RShoulder			RElbow			RWrist			LShoulder			LElbow			LWrist		
		X1	Y1	Z1	X2	Y2	Z2	X3	Y3	Z3	X4	Y4	Z4	X5	Y5	Z5	X6	Y6	Z6	X7	Y7	Z7	X8	Y8	Z8	X9	Y9	Z9	X10	Y10	Z10	X11	Y11	Z11	X12	Y12	Z12	X13	Y13	Z13	X14	Y14	Z14	X15	Y15	Z15	X16	Y16	Z16	X17	Y17	Z17	X18	Y18	Z18	X19	Y19	Z19	X20	Y20	Z20	X21	Y21	Z21	X22	Y22	Z22
67	2.2416666666666667	1.0317388163091712	-0.7325909444297455	0.0	1.029429406374743	-0.7429586531690078	0.0	1.0754406181808551	-1.0652219243740948	0.0	1.3165456632087755	-1.0895026532605923	0.0	1.5018096629617368	-1.0739062881568708	0.0	1.4279808814649322	-1.0985155988485404	0.0	1.3277732520885224	-1.1008333985507668	0.0	1.0371306801984952	-0.7467002395842683	0.0	1.1001391657934303	-1.0663922194875162	0.0	1.3473304936509674	-1.0576460916286476	0.0	1.416982421875	-1.0925839843750003	0.0	1.4258959960937496	-1.08961279296875	0.0	1.23309092926205	-1.0843513354064294	0.0	1.0906984352073892	-0.20125903526447878	0.0	1.1608374922077607	-0.015529043410608585	0.0	1.1675846513809873	-0.08513689592363709	0.0	1.0460335275629955	-0.26515962052583425	0.0	1.097672430788411	-0.5658405802986498	0.0	1.2151436489405771	-0.816123233425726	0.0	1.1218863007276485	-0.27772040687870986	0.0	1.116386292928942	-0.5464998270682988	0.0	1.1661867194715254	-0.782838348147033	0.0
68	2.275124378109453	1.0326180562967335	-0.7315570235022514	0.0	1.0316027629212166	-0.741636328797657	0.0	1.0781946775704379	-1.0667849943440622	0.0	1.316547445429954	-1.089606688289362	0.0	1.5018107053148892	-1.0739062179929284	0.0	1.4279826131882387	-1.0985155741512183	0.0	1.3277738085940691	-1.100833451872133	0.0	1.0433701819367855	-0.7462501279319861	0.0	1.1403596585061713	-1.067400372775445	0.0	1.3476047360943042	-1.0575800439800274	0.0	1.416982421875	-1.0925839843750003	0.0	1.4258959960937496	-1.08961279296875	0.0	1.2328509718788245	-1.0842243380322467	0.0	1.0848931624314846	-0.19892064824399538	0.0	1.1524961128674747	-0.01373115589652134	0.0	1.161124808351814	-0.08145248226544845	0.0	1.0452283566122582	-0.26200237539768767	0.0	1.107999741214171	-0.5619350433752254	0.0	1.243359534333575	-0.8108214317586455	0.0	1.1126561553427547	-0.27432233748338636	0.0	1.1180050006515687	-0.546881512894971	0.0	1.1780688456958714	-0.7820438363573627	0.0
69	2.308582089552239	1.0341710649749802	-0.7298489610922284	0.0	1.033358898898325	-0.7403451401924825	0.0	1.0786660432237682	-1.0678427584722685	0.0	1.3165485946095195	-1.0898151224661752	0.0	1.501811092852447	-1.0739061976651247	0.0	1.4279832764255396	-1.0985155776762034	0.0	1.3277739381945584	-1.1008334858021722	0.0	1.0535108598133005	-0.7455698713375923	0.0	1.1793871196097854	-1.065784240472155	0.0	1.3465164853251024	-1.0580379149813532	0.0	1.416982421875	-1.0925839843750003	0.0	1.4258959960937496	-1.08961279296875	0.0	1.2324446470300507	-1.0840805955225608	0.0	1.079345529968115	-0.19699100446659146	0.0	1.1441890020973915	-0.011646692055479801	0.0	1.1550810915545742	-0.07841436557941084	0.0	1.0449912786686932	-0.25934801473987656	0.0	1.1206852484981351	-0.5563389351404238	0.0	1.2752796035676555	-0.8028850030251807	0.0	1.1005402701851428	-0.27092218749886515	0.0	1.1204785770689851	-0.546567574368446	0.0	1.1888610924239265	-0.7798188201745513	0.0
70	2.342039800995025	1.0366293314103927	-0.7273371654224547	0.0	1.0345382709060993	-0.7386355797768831	0.0	1.0777471687828668	-1.067868548611298	0.0	1.316549200819796	-1.0901399918235248	0.0	1.5018111055183585	-1.073906203393554	0.0	1.4279833196289693	-1.0985155919003446	0.0	1.327773856615793	-1.100833502553762	0.0	1.066640938341214	-0.7439899617169746	0.0	1.2151434648038681	-1.05875768888735	0.0	1.342840240709913	-1.0594657106883423	0.0	1.416982421875	-1.0925839843750003	0.0	1.4258959960937496	-1.08961279296875	0.0	1.2319008894533945	-1.0839902433728925	0.0	1.0742052215290525	-0.1949529304847702	0.0	1.1365260793211034	-0.008998340529446017	0.0	1.1496662569646479	-0.07586495993047827	0.0	1.0453333056110223	-0.2571213042904229	0.0	1.1347440017919095	-0.5492725855764318	0.0	1.308775754408151	-0.7928805587579038	0.0	1.0858780654418396	-0.2670974480509759	0.0	1.1232319152111043	-0.5449491588960549	0.0	1.1974566160904658	-0.7764089335368146	0.0
71	2.375497512437811	1.0399111246371942	-0.7240620490759253	0.0	1.034826813969862	-0.7360436755582312	0.0	1.0762131692338768	-1.0667572922640378	0.0	1.316549443197051	-1.0905343778000838	0.0	1.501810960022665	-1.0739062183306156	0.0	1.427983095214429	-1.0985156067032402	0.0	1.3277737099012115	-1.1008335076696787	0.0	1.0813992763825229	-0.7409850540863273	0.0	1.2497106831214506	-1.0434659346289463	0.0	1.3352981730957705	-1.0623098804112354	0.0	1.416982421875	-1.0925839843750003	0.0	1.4258959960937496	-1.08961279296875	0.0	1.2313796234010221	-1.0840882850579032	0.0	1.069543392132024	-0.19266316985371215	0.0	1.1303427402914101	-0.005778848613428031	0.0	1.1450995148254206	-0.07372292389135515	0.0	1.0460906364110425	-0.25506885267684576	0.0	1.1491150414351323	-0.5409431205329853	0.0	1.3411968910271326	-0.7807385151065556	0.0	1.0702091484039193	-0.2627889469108493	0.0	1.1255740863259494	-0.541757683944392	0.0	1.203473857092519	-0.7726747536069253	0.0
72	2.4089552238805974	1.043632994659126	-0.7204300740516795	0.0	1.033926955710017	-0.7326221725242841	0.0	1.074618020681501	-1.06506924812615	0.0	1.3165494672310911	-1.0908392492936576	0.0	1.5018107884977419	-1.0739062330363809	0.0	1.4279828208652738	-1.0985156177510476	0.0	1.3277735759210432	-1.1008335065794403	0.0	1.0962063837610683	-0.7365723467484699	0.0	1.2845175551206642	-1.018283270704914	0.0	1.323321164408908	-1.0667261358294493	0.0	1.416982421875	-1.0925839843750003	0.0	1.4258959960937496	-1.08961279296875	0.0	1.2312535595532046	-1.0845786220260865	0.0	1.0655365422203276	-0.19040702450337502	0.0	1.1265101774659831	-0.00243430130740206	0.0	1.1416798394109278	-0.07200977891137617	0.0	1.0469703395798906	-0.25297038549217127	0.0	1.1627869297332427	-0.531668107695885	0.0	1.370152406317466	-0.7661539849595664	0.0	1.0558735442928115	-0.25834438404734467	0.0	1.1272284956941592	-0.5371636904136199	0.0	1.2070677015307218	-0.769557366164267	0.0
73	2.442412935323383	1.0472231898093982	-0.7171216704651016	0.0	1.031874324026743	-0.7290473659438739	0.0	1.0732811734661767	-1.0637444873093311	0.0	1.3165493291889963	-1.0907279307904942	0.0	1.5018106525068189	-1.073906243676663	0.0	1.427982599915228	-1.0985156242679481	0.0	1.3277734833807484	-1.1008335032182588	0.0	1.1091885598236122	-0.7313214578400828	0.0	1.3172254816219986	-0.9839242653275968	0.0	1.3084291444027685	-1.072064110290847	0.0	1.416982421875	-1.0925839843750003	0.0	1.4258959960937496	-1.08961279296875	0.0	1.2321672612781525	-1.085698782198503	0.0	1.0624904418068184	-0.1886431761156471	0.0	1.1256187718012325	0.00029890763138390426	0.0	1.1397823231821005	-0.07079369015722828	0.0	1.047726330784793	-0.2509050876935736	0.0	1.1748265682055268	-0.5220774641099967	0.0	1.393966655030757	-0.7491989382372836	0.0	1.0448174547575737	-0.25429664519190537	0.0	1.12837201916679	-0.5316619922828208	0.0	1.2087408046318928	-0.7675011983593221	0.0
74	2.4758706467661695	1.0501125628293122	-0.7146097853209141	0.0	1.0290961216046417	-0.7260723155093434	0.0	1.0722715613724751	-1.0634942729911452	0.0	1.3165489869146259	-1.0896811408810387	0.0	1.5018105678660614	-1.0739062497675531	0.0	1.4279824606215703	-1.0985156271561247	0.0	1.3277734329190158	-1.1008334998723017	0.0	1.1188071807815165	-0.7259054548160484	0.0	1.344324098187896	-0.9435660055655245	0.0	1.295004841445816	-1.0766687243778454	0.0	1.416982421875	-1.0925839843750003	0.0	1.4258959960937496	-1.08961279296875	0.0	1.2350025388302937	-1.0876124963707685	0.0	1.0606451853948542	-0.18774805857487822	0.0	1.1277287652762542	0.0017748747221057347	0.0	1.1396994267195903	-0.07018688448795624	0.0	1.0482173795030814	-0.24920483736004317	0.0	1.1844931278989697	-0.513050592308633	0.0	1.411790984155332	-0.730673599426242	0.0	1.0375961257956072	-0.25117200354329416	0.0	1.1292037988313792	-0.5259160080652355	0.0	1.2091630467380128	-0.7664376786377523	0.0
75	2.5093283582089554	1.0519044650834415	-0.7129906268916352	0.0	1.0261472811632009	-0.7241540621936459	0.0	1.071450919785522	-1.064398165402103	0.0	1.3165483278917194	-1.0870524161838735	0.0	1.5018105272337987	-1.0739062523415268	0.0	1.4279823926410253	-1.0985156277668562	0.0	1.3277734133722365	-1.100833497569886	0.0	1.1245152665059093	-0.7208854535804617	0.0	1.364153472384441	-0.9017363645194596	0.0	1.288140206745686	-1.0788790622620124	0.0	1.416982421875	-1.0925839843750003	0.0	1.4258959960937496	-1.08961279296875	0.0	1.240639545196476	-1.090197703934981	0.0	1.0600074442093446	-0.1878641041369006	0.0	1.1322825555285838	0.001723121899272183	0.0	1.1414269653722633	-0.07040194470111252	0.0	1.0483756761244885	-0.24819040987576155	0.0	1.1915083566323108	-0.5054627226402096	0.0	1.4237269237464671	-0.712038120945996	0.0	1.0335110175898121	-0.2493007634374747	0.0	1.1294810182868211	-0.5206481626079156	0.0	1.2089456390013997	-0.7660715862744157	0.0
76	2.5427860696517417	1.052443987140926	-0.7121795269146047	0.0	1.023384729473228	-0.7234649351575838	0.0	1.070564036154987	-1.0659402871877157	0.0	1.316547239530762	-1.082309734109216	0.0	1.5018105156855264	-1.0739062527821845	0.0	1.4279823725082696	-1.098515627271988	0.0	1.3277734116585775	-1.1008334965809052	0.0	1.1266930218608575	-0.7167259215262338	0.0	1.3769804846651403	-0.862690349391089	0.0	1.290056635146261	-1.0782858678826963	0.0	1.416982421875	-1.0925839843750003	0.0	1.4258959960937496	-1.08961279296875	0.0	1.2494551607381865	-1.0928530961587914	0.0	1.0603429906365025	-0.1888771387006452	0.0	1.1382358898225555	0.0003178225990322581	0.0	1.1445720057481237	-0.07173670356666256	0.0	1.0482035908297627	-0.24798496137312398	0.0	1.1960302333864554	-0.49991611373823136	0.0	1.4307233539970718	-0.695006173491637	0.0	1.0314064971863004	-0.24868092390649488	0.0	1.1283754266845178	-0.5164787744668063	0.0	1.2085127571105019	-0.7660946513617536	0.0
77	2.5762437810945276	1.0518109994889837	-0.7119591344359658	0.0	1.0207937073468403	-0.7239092332782172	0.0	1.0694100020980457	-1.0673995544330768	0.0	1.3165457353254126	-1.0755460406563702	0.0	1.5018105191960573	-1.0739062522482858	0.0	1.4279823776944878	-1.0985156264528857	0.0	1.3277734173789175	-1.1008334967990945	0.0	1.1262766213356352	-0.7135994302165518	0.0	1.3840660216958796	-0.8293506549076454	0.0	1.2992289435471134	-1.0756143360570625	0.0	1.416982421875	-1.0925839843750003	0.0	1.4258959960937496	-1.08961279296875	0.0	1.260819308745615	-1.0947254701389955	0.0	1.061259213334295	-0.19047382906355015	0.0	1.1444129101553606	-0.0019228499543561736	0.0	1.1484462649724343	-0.07434538541507006	0.0	1.0478157495594902	-0.24853670650429924	0.0	1.1983173750107574	-0.49660732676979374	0.0	1.43398827120248	-0.6810933711088807	0.0	1.0301700916940588	-0.2490171462949046	0.0	1.1249931638912254	-0.5137108158051553	0.0	1.208102479528463	-0.7662773042843912	0.0
